<?xml version="1.0" encoding="UTF-8"?>
<svg version="1.1" xmlns="http://www.w3.org/2000/svg" width="1024" height="1024">
<path d="M0 0 C337.92 0 675.84 0 1024 0 C1024 337.92 1024 675.84 1024 1024 C686.08 1024 348.16 1024 0 1024 C0 686.08 0 348.16 0 0 Z " fill="#FAF7F2" transform="translate(0,0)"/>
<path d="M0 0 C0.86753906 0.05929687 1.73507812 0.11859375 2.62890625 0.1796875 C16.71630889 1.90124788 28.49553277 10.60810862 39.08837891 19.43017578 C42.68581882 22.38439527 46.38116867 25.21407517 50.0625 28.0625 C51.60946463 29.26420754 53.15634133 30.4660283 54.703125 31.66796875 C70.12314971 43.63096692 85.62029739 55.49957619 101.25 67.1875 C107.28813135 71.70282706 113.29521723 76.25670781 119.27197266 80.85302734 C123.32361929 83.96647583 127.3967651 87.0471751 131.49609375 90.09765625 C132.43106689 90.79793945 133.36604004 91.49822266 134.3293457 92.21972656 C136.14164185 93.57637686 137.95891041 94.92641989 139.78198242 96.26855469 C149.75631134 103.76297207 155.60554001 110.76873457 159 123 C159.67380852 128.53493716 159.70713901 133.99367389 159.6640625 139.5625 C159.66744273 141.12703832 159.67230528 142.69157404 159.67855835 144.25610352 C159.68587318 147.51376681 159.67540127 150.77073834 159.65185547 154.02832031 C159.62336976 158.16708976 159.6398032 162.30423719 159.66971779 166.44294739 C159.68793868 169.667316 159.68196594 172.89131119 159.66907883 176.11569214 C159.66578542 177.64004721 159.66968558 179.16443819 159.68147659 180.68875122 C159.76444404 194.42252639 157.27794143 205.61035827 147.38671875 215.73046875 C141.35690237 221.46422214 135.10241874 226.78972688 128.578125 231.953125 C125.99028829 234.00771051 123.42962127 236.09179273 120.875 238.1875 C101.16472753 254.33935939 101.16472753 254.33935939 92 261.5 C84.94349042 267.01418547 77.99704302 272.65917267 71.05859375 278.32080078 C53.45285589 292.6818379 53.45285589 292.6818379 45.62109375 298.90234375 C43.53887948 300.5687358 41.47194032 302.25000255 39.41015625 303.94140625 C22.4827485 317.77015086 7.35453988 324.86881917 -15 323 C-29.81653082 320.22388341 -40.61723592 311.24303733 -52 302 C-52.64807617 301.47422363 -53.29615234 300.94844727 -53.96386719 300.40673828 C-56.65730209 298.21972183 -59.34924684 296.03091041 -62.03759766 293.83764648 C-66.8862862 289.88632193 -71.78664741 286.00764829 -76.7175293 282.15966797 C-81.13105599 278.70625289 -85.47649846 275.17503854 -89.8125 271.625 C-95.27287108 267.1582645 -100.81207731 262.81922716 -106.4375 258.5625 C-113.88025067 252.92875719 -121.08707795 247.04222509 -128.26953125 241.08203125 C-132.94703067 237.20400535 -137.72424648 233.46313996 -142.58056641 229.81152344 C-155.77784387 219.87033478 -167.14209894 210.21510961 -170 193 C-170.09986789 190.78455825 -170.14815473 188.56653051 -170.16113281 186.34887695 C-170.16609772 185.70096695 -170.17106262 185.05305695 -170.17617798 184.38551331 C-170.19071879 182.25309158 -170.19758922 180.12074431 -170.203125 177.98828125 C-170.20595238 177.25513388 -170.20877975 176.5219865 -170.21169281 175.76662254 C-170.2266554 171.88420632 -170.23590242 168.00182695 -170.24023438 164.11938477 C-170.24570426 160.13295602 -170.26970901 156.14687136 -170.29820633 152.16055012 C-170.31694573 149.07450923 -170.32204435 145.98854923 -170.32357025 142.90245628 C-170.32657359 141.43421747 -170.33452253 139.96597927 -170.34775543 138.49779701 C-170.46036079 125.04016421 -168.57450781 113.41611979 -159.27734375 103.0859375 C-152.01042891 96.2957785 -143.56010431 90.67600808 -135.52734375 84.83789062 C-131.5507122 81.94607433 -127.58591064 79.03830104 -123.625 76.125 C-122.84648682 75.55241455 -122.06797363 74.9798291 -121.26586914 74.38989258 C-114.43014069 69.34682115 -107.67183497 64.20515632 -100.92431641 59.04492188 C-94.80883665 54.3697762 -88.66439531 49.73542474 -82.5 45.125 C-77.16483323 41.13283761 -71.83983548 37.13087059 -66.5625 33.0625 C-65.56347656 32.29292969 -64.56445312 31.52335937 -63.53515625 30.73046875 C-61.56075936 29.20759713 -59.58944216 27.68093935 -57.62060547 26.15087891 C-21.57385354 -1.83481333 -21.57385354 -1.83481333 0 0 Z " fill="#FAF7F2" transform="translate(517,256)"/>
<path d="M0 0 C0.86753906 0.05929687 1.73507812 0.11859375 2.62890625 0.1796875 C16.71630889 1.90124788 28.49553277 10.60810862 39.08837891 19.43017578 C42.68581882 22.38439527 46.38116867 25.21407517 50.0625 28.0625 C51.60946463 29.26420754 53.15634133 30.4660283 54.703125 31.66796875 C70.12314971 43.63096692 85.62029739 55.49957619 101.25 67.1875 C107.28813135 71.70282706 113.29521723 76.25670781 119.27197266 80.85302734 C123.32361929 83.96647583 127.3967651 87.0471751 131.49609375 90.09765625 C132.43106689 90.79793945 133.36604004 91.49822266 134.3293457 92.21972656 C136.14164185 93.57637686 137.95891041 94.92641989 139.78198242 96.26855469 C149.75631134 103.76297207 155.60554001 110.76873457 159 123 C159.67380852 128.53493716 159.70713901 133.99367389 159.6640625 139.5625 C159.66744273 141.12703832 159.67230528 142.69157404 159.67855835 144.25610352 C159.68587318 147.51376681 159.67540127 150.77073834 159.65185547 154.02832031 C159.62336976 158.16708976 159.6398032 162.30423719 159.66971779 166.44294739 C159.68793868 169.667316 159.68196594 172.89131119 159.66907883 176.11569214 C159.66578542 177.64004721 159.66968558 179.16443819 159.68147659 180.68875122 C159.76444404 194.42252639 157.27794143 205.61035827 147.38671875 215.73046875 C141.35690237 221.46422214 135.10241874 226.78972688 128.578125 231.953125 C125.99028829 234.00771051 123.42962127 236.09179273 120.875 238.1875 C101.16472753 254.33935939 101.16472753 254.33935939 92 261.5 C84.94349042 267.01418547 77.99704302 272.65917267 71.05859375 278.32080078 C53.45285589 292.6818379 53.45285589 292.6818379 45.62109375 298.90234375 C43.53887948 300.5687358 41.47194032 302.25000255 39.41015625 303.94140625 C22.4827485 317.77015086 7.35453988 324.86881917 -15 323 C-29.81653082 320.22388341 -40.61723592 311.24303733 -52 302 C-52.64807617 301.47422363 -53.29615234 300.94844727 -53.96386719 300.40673828 C-56.65730209 298.21972183 -59.34924684 296.03091041 -62.03759766 293.83764648 C-66.8862862 289.88632193 -71.78664741 286.00764829 -76.7175293 282.15966797 C-81.13105599 278.70625289 -85.47649846 275.17503854 -89.8125 271.625 C-95.27287108 267.1582645 -100.81207731 262.81922716 -106.4375 258.5625 C-113.88025067 252.92875719 -121.08707795 247.04222509 -128.26953125 241.08203125 C-132.94703067 237.20400535 -137.72424648 233.46313996 -142.58056641 229.81152344 C-155.77784387 219.87033478 -167.14209894 210.21510961 -170 193 C-170.09986789 190.78455825 -170.14815473 188.56653051 -170.16113281 186.34887695 C-170.16609772 185.70096695 -170.17106262 185.05305695 -170.17617798 184.38551331 C-170.19071879 182.25309158 -170.19758922 180.12074431 -170.203125 177.98828125 C-170.20595238 177.25513388 -170.20877975 176.5219865 -170.21169281 175.76662254 C-170.2266554 171.88420632 -170.23590242 168.00182695 -170.24023438 164.11938477 C-170.24570426 160.13295602 -170.26970901 156.14687136 -170.29820633 152.16055012 C-170.31694573 149.07450923 -170.32204435 145.98854923 -170.32357025 142.90245628 C-170.32657359 141.43421747 -170.33452253 139.96597927 -170.34775543 138.49779701 C-170.46036079 125.04016421 -168.57450781 113.41611979 -159.27734375 103.0859375 C-152.01042891 96.2957785 -143.56010431 90.67600808 -135.52734375 84.83789062 C-131.5507122 81.94607433 -127.58591064 79.03830104 -123.625 76.125 C-122.84648682 75.55241455 -122.06797363 74.9798291 -121.26586914 74.38989258 C-114.43014069 69.34682115 -107.67183497 64.20515632 -100.92431641 59.04492188 C-94.80883665 54.3697762 -88.66439531 49.73542474 -82.5 45.125 C-77.16483323 41.13283761 -71.83983548 37.13087059 -66.5625 33.0625 C-65.56347656 32.29292969 -64.56445312 31.52335937 -63.53515625 30.73046875 C-61.56075936 29.20759713 -59.58944216 27.68093935 -57.62060547 26.15087891 C-21.57385354 -1.83481333 -21.57385354 -1.83481333 0 0 Z M-33.125 23.4375 C-33.9392041 24.05512207 -34.7534082 24.67274414 -35.59228516 25.30908203 C-38.07127436 27.19369089 -40.53599721 29.09586115 -43 31 C-44.42081675 32.08342047 -45.84264193 33.16552015 -47.265625 34.24609375 C-50.0330321 36.35075292 -52.79446509 38.46286793 -55.55078125 40.58203125 C-73.21202572 54.15993539 -90.98068612 67.58722487 -108.92749023 80.78515625 C-114.68536953 85.0224503 -120.42306973 89.28535751 -126.13037109 93.59057617 C-129.5147346 96.14314592 -132.91307987 98.67251517 -136.33984375 101.16796875 C-137.05696533 101.69438965 -137.77408691 102.22081055 -138.51293945 102.76318359 C-139.86983027 103.7585401 -141.23129855 104.74770279 -142.59838867 105.72900391 C-151.31810242 112.15572651 -156.75424563 119.52547378 -158.5625 130.375 C-156.28855647 145.02930275 -147.83908 151.75266336 -136.65625 160.19921875 C-132.7185672 163.18993163 -128.88886214 166.30633715 -125.0625 169.4375 C-120.02297628 173.55877477 -114.95010112 177.62669052 -109.8125 181.625 C-104.72917091 185.58617507 -99.78826332 189.68405904 -94.89379883 193.87548828 C-91.00715602 197.18840259 -87.03239022 200.36666367 -83 203.5 C-77.85122701 207.50081257 -72.8464859 211.63390989 -67.89453125 215.875 C-63.43893759 219.67250355 -58.85544232 223.28474722 -54.23046875 226.87280273 C-50.22266626 229.99695587 -46.34621699 233.24249654 -42.5 236.5625 C-38.02616067 240.39310933 -33.44828251 244.03137492 -28.6875 247.5 C-28.13707031 247.90935791 -27.58664062 248.31871582 -27.01953125 248.74047852 C-20.26380531 253.56383249 -13.91935371 255.55865411 -5.6875 255.4375 C-4.9462085 255.42847656 -4.20491699 255.41945313 -3.44116211 255.41015625 C8.15617649 255.04706966 15.40327074 250.46883838 24 243 C25.53578688 241.76349466 27.07758172 240.53441794 28.625 239.3125 C35.78477089 233.58468329 42.88808309 227.78701979 50 222 C65.74780843 209.18589093 65.74780843 209.18589093 73.328125 203.14453125 C76.1229819 200.90129084 78.90193625 198.63935364 81.6796875 196.375 C87.976228 191.24272548 94.30742843 186.16414533 100.70996094 181.16479492 C105.86950253 177.12597343 110.95200771 172.99581977 116.02148438 168.84472656 C119.26151755 166.19822716 122.51739017 163.5843343 125.84375 161.046875 C139.6928895 150.92235677 139.6928895 150.92235677 147 136 C148.07135347 127.9161511 146.75959497 121.66343296 142 115 C135.01331957 107.10137392 125.64833241 101.14318606 117.22265625 94.8984375 C112.40208601 91.31784823 107.66042335 87.64545499 102.9375 83.9375 C96.8686894 79.18203883 90.7239359 74.55043239 84.5 70 C75.87152016 63.69072817 67.42713869 57.16704377 59.01464844 50.57373047 C56.10668601 48.30219317 53.17956262 46.05606571 50.25 43.8125 C46.43585256 40.88736437 42.64556292 37.93623722 38.87915039 34.95019531 C36.53646175 33.09691177 34.18388166 31.25662953 31.82666016 29.421875 C30.58211824 28.45312171 29.33968557 27.48165402 28.09912109 26.5078125 C17.66495421 18.36098384 9.08982715 12.79191631 -4.5 12.5 C-5.17595215 12.48106689 -5.8519043 12.46213379 -6.54833984 12.44262695 C-16.8670213 12.57441245 -25.18659829 17.24229953 -33.125 23.4375 Z " fill="#9EB6BD" transform="translate(517,256)"/>
<path d="M0 0 C2.98661255 2.29575136 5.88706565 4.69241529 8.78613281 7.09716797 C12.38498919 10.04274012 16.07821984 12.86740418 19.7578125 15.7109375 C21.29730937 16.9069932 22.836377 18.10360161 24.375 19.30078125 C25.11717773 19.87812012 25.85935547 20.45545898 26.62402344 21.05029297 C35.4453935 27.9156201 44.1917679 34.85726608 52.84790039 41.93017578 C57.11851066 45.40931557 61.43986672 48.80888339 65.8203125 52.1484375 C81.16384648 63.89850441 81.16384648 63.89850441 82.26171875 70.9453125 C82.37773193 77.90610336 82.17459629 83.05737523 77.78125 88.63671875 C73.76921749 92.74943933 69.30461408 96.21433174 64.7578125 99.7109375 C62.9192911 101.20457406 61.08589113 102.70453794 59.2578125 104.2109375 C56.53399561 106.4409179 53.80900449 108.66929737 51.078125 110.890625 C46.70567722 114.45195203 42.3602438 118.03832643 38.07080078 121.69897461 C32.57298395 126.3900376 26.99106277 130.93572945 21.27905273 135.36352539 C17.18831029 138.54759466 13.19775212 141.83487455 9.22607422 145.16601562 C-2.8999917 155.31956059 -11.77921815 162.13630281 -28.2421875 160.7109375 C-37.9174394 158.33664256 -45.93391504 149.61696097 -53.33154297 143.32617188 C-55.6220953 141.38976832 -57.9533437 139.51041533 -60.3046875 137.6484375 C-64.64269753 134.20027568 -68.94426723 130.70881844 -73.2421875 127.2109375 C-77.66643347 123.61072529 -82.09502407 120.01728792 -86.5546875 116.4609375 C-95.22101643 109.54231824 -103.74964136 102.46967039 -112.19921875 95.2890625 C-113.74976616 93.97537663 -115.30154722 92.66271658 -116.87890625 91.38134766 C-121.59086982 87.54713096 -124.73306246 84.18649518 -125.625 78.09765625 C-125.88730171 71.77618501 -125.13490267 66.78573372 -121.2421875 61.7109375 C-114.19786423 54.15326273 -105.45480958 48.22933082 -97.16259766 42.12597656 C-88.6513883 35.85455914 -80.25191091 29.4368125 -71.88330078 22.97705078 C-70.25266638 21.71902192 -68.62075746 20.46266895 -66.98828125 19.20703125 C-66.45243408 18.79485352 -65.91658691 18.38267578 -65.36450195 17.95800781 C-64.28399724 17.12742571 -63.20310583 16.29734644 -62.12182617 15.46777344 C-59.37740512 13.36081162 -56.64216308 11.24352254 -53.921875 9.10546875 C-36.52560931 -4.52660276 -20.49825319 -14.47226069 0 0 Z " fill="#FAF7F2" transform="translate(533.2421875,315.2890625)"/>
<path d="M0 0 C0.33 0 0.66 0 1 0 C1.07497625 4.23173639 1.12898541 8.46310588 1.16479492 12.6953125 C1.17974586 14.1306025 1.20011424 15.56584791 1.22631836 17.00097656 C1.4302352 28.4683 0.97209499 38.50816411 -6.66796875 47.66015625 C-10.56717015 51.5724203 -14.92255058 54.85088624 -19.3203125 58.1796875 C-22.82177969 60.83375928 -26.17074699 63.63454637 -29.5 66.5 C-34.42185518 70.71383023 -39.45218877 74.75705042 -44.56298828 78.73876953 C-49.04242173 82.23344157 -53.46971094 85.78736943 -57.875 89.375 C-58.54104248 89.91737305 -59.20708496 90.45974609 -59.89331055 91.01855469 C-61.92958886 92.67816195 -63.96496613 94.33886709 -66 96 C-74.30268082 102.77721219 -82.62404343 109.52057235 -91.06738281 116.12207031 C-97.07766982 120.82801176 -102.98406558 125.65938613 -108.85253906 130.54101562 C-135.90171612 153.03134262 -135.90171612 153.03134262 -153.83203125 152.21484375 C-167.00143302 150.9097679 -175.93797367 145.26315768 -185.84765625 136.6953125 C-189.06525489 133.91606507 -192.39309177 131.2955413 -195.75 128.6875 C-200.96516498 124.62082199 -206.12318696 120.49001483 -211.25 116.3125 C-211.93143066 115.75731689 -212.61286133 115.20213379 -213.31494141 114.63012695 C-214.62436538 113.56317119 -215.93377363 112.49619614 -217.24316406 111.42919922 C-223.92735239 105.99156186 -230.69595293 100.6628826 -237.47705078 95.34716797 C-242.47600433 91.42354726 -247.43877662 87.45599696 -252.39550781 83.47924805 C-256.55483102 80.1458783 -260.73853977 76.84573589 -264.9375 73.5625 C-272.13195172 67.92777089 -279.2447483 62.19532383 -286.30273438 56.390625 C-287.71975473 55.22961408 -289.14764388 54.0818849 -290.578125 52.9375 C-296.1281538 48.36190374 -300.69982963 42.90051112 -303 36 C-303.08494728 33.34105893 -303.11594796 30.70914623 -303.09765625 28.05078125 C-303.0962413 27.27816452 -303.09482635 26.50554779 -303.09336853 25.70951843 C-303.08777466 23.24380611 -303.07522333 20.77818485 -303.0625 18.3125 C-303.05748421 16.63997527 -303.05292144 14.96744912 -303.04882812 13.29492188 C-303.03780724 9.19657954 -303.02054684 5.09830521 -303 1 C-300.121582 2.3314565 -297.80803749 3.83298322 -295.3828125 5.87109375 C-294.70081787 6.43965088 -294.01882324 7.00820801 -293.31616211 7.59399414 C-292.23153687 8.50652954 -292.23153687 8.50652954 -291.125 9.4375 C-285.78387736 13.88606373 -280.42318849 18.29319637 -274.9375 22.5625 C-268.44928358 27.61869179 -262.06681498 32.79874968 -255.69140625 37.99609375 C-252.70356942 40.43116179 -249.70152967 42.84737413 -246.6875 45.25 C-241.4191496 49.45234639 -236.20982251 53.7254612 -231 58 C-229.16689838 59.50028317 -227.33356573 61.00028408 -225.5 62.5 C-222.80790053 64.70228166 -220.11607386 66.90488636 -217.42578125 69.109375 C-215.63908609 70.57291602 -213.85127301 72.03509306 -212.0625 73.49609375 C-209.80911343 75.33846721 -207.55974728 77.18533027 -205.3125 79.03515625 C-179.08930248 101.84882276 -179.08930248 101.84882276 -146.03955078 108.22509766 C-128.87082406 106.33024896 -116.84768963 95.63357998 -104.28125 84.78515625 C-100.93621169 81.91553955 -97.48164797 79.20106326 -94 76.5 C-89.40883529 72.93310589 -84.91599788 69.28159259 -80.5 65.5 C-74.9845574 60.78167854 -69.32617439 56.27730691 -63.6015625 51.81640625 C-59.87439722 48.91060153 -56.1853464 45.95855782 -52.5 43 C-47.71068572 39.1572027 -42.89982775 35.34464826 -38.0625 31.5625 C-32.93738496 27.55077957 -27.86212285 23.48131945 -22.8125 19.375 C-22.14138184 18.82948486 -21.47026367 18.28396973 -20.77880859 17.72192383 C-17.72270965 15.23317184 -14.67517236 12.73533994 -11.6484375 10.2109375 C-10.67132812 9.39882813 -9.69421875 8.58671875 -8.6875 7.75 C-7.84574219 7.04359375 -7.00398438 6.3371875 -6.13671875 5.609375 C-4 4 -4 4 -1 3 C-0.67 2.01 -0.34 1.02 0 0 Z " fill="#FAF7F2" transform="translate(663,415)"/>
<path d="M0 0 C2.98661255 2.29575136 5.88706565 4.69241529 8.78613281 7.09716797 C12.38498919 10.04274012 16.07821984 12.86740418 19.7578125 15.7109375 C21.29730937 16.9069932 22.836377 18.10360161 24.375 19.30078125 C25.11717773 19.87812012 25.85935547 20.45545898 26.62402344 21.05029297 C35.4453935 27.9156201 44.1917679 34.85726608 52.84790039 41.93017578 C57.11851066 45.40931557 61.43986672 48.80888339 65.8203125 52.1484375 C81.16384648 63.89850441 81.16384648 63.89850441 82.26171875 70.9453125 C82.37773193 77.90610336 82.17459629 83.05737523 77.78125 88.63671875 C73.76921749 92.74943933 69.30461408 96.21433174 64.7578125 99.7109375 C62.9192911 101.20457406 61.08589113 102.70453794 59.2578125 104.2109375 C56.53399561 106.4409179 53.80900449 108.66929737 51.078125 110.890625 C46.70567722 114.45195203 42.3602438 118.03832643 38.07080078 121.69897461 C32.57298395 126.3900376 26.99106277 130.93572945 21.27905273 135.36352539 C17.18831029 138.54759466 13.19775212 141.83487455 9.22607422 145.16601562 C-2.8999917 155.31956059 -11.77921815 162.13630281 -28.2421875 160.7109375 C-37.9174394 158.33664256 -45.93391504 149.61696097 -53.33154297 143.32617188 C-55.6220953 141.38976832 -57.9533437 139.51041533 -60.3046875 137.6484375 C-64.64269753 134.20027568 -68.94426723 130.70881844 -73.2421875 127.2109375 C-77.66643347 123.61072529 -82.09502407 120.01728792 -86.5546875 116.4609375 C-95.22101643 109.54231824 -103.74964136 102.46967039 -112.19921875 95.2890625 C-113.74976616 93.97537663 -115.30154722 92.66271658 -116.87890625 91.38134766 C-121.59086982 87.54713096 -124.73306246 84.18649518 -125.625 78.09765625 C-125.88730171 71.77618501 -125.13490267 66.78573372 -121.2421875 61.7109375 C-114.19786423 54.15326273 -105.45480958 48.22933082 -97.16259766 42.12597656 C-88.6513883 35.85455914 -80.25191091 29.4368125 -71.88330078 22.97705078 C-70.25266638 21.71902192 -68.62075746 20.46266895 -66.98828125 19.20703125 C-66.45243408 18.79485352 -65.91658691 18.38267578 -65.36450195 17.95800781 C-64.28399724 17.12742571 -63.20310583 16.29734644 -62.12182617 15.46777344 C-59.37740512 13.36081162 -56.64216308 11.24352254 -53.921875 9.10546875 C-36.52560931 -4.52660276 -20.49825319 -14.47226069 0 0 Z M-43.9921875 17.3984375 C-45.57398934 18.64742601 -47.15602194 19.89612233 -48.73828125 21.14453125 C-49.88852783 22.0569458 -49.88852783 22.0569458 -51.06201172 22.98779297 C-54.03831341 25.34017117 -57.04274592 27.65448316 -60.0546875 29.9609375 C-61.61123047 31.15589844 -61.61123047 31.15589844 -63.19921875 32.375 C-64.20339844 33.14585937 -65.20757812 33.91671875 -66.2421875 34.7109375 C-67.21542969 35.46117187 -68.18867188 36.21140625 -69.19140625 36.984375 C-74.24221051 40.87756856 -79.30140114 44.75883904 -84.37890625 48.6171875 C-85.75079102 49.66011963 -85.75079102 49.66011963 -87.15039062 50.72412109 C-88.95161732 52.09276225 -90.75365085 53.46034244 -92.55664062 54.82666016 C-96.96018349 58.17278432 -101.34607845 61.54165222 -105.69921875 64.953125 C-106.49948486 65.57815918 -107.29975098 66.20319336 -108.12426758 66.84716797 C-110.9475834 69.3316859 -112.9605163 71.40978471 -113.765625 75.12890625 C-113.00531534 78.879389 -110.67048125 80.65070395 -107.8671875 83.0234375 C-107.31772461 83.50635254 -106.76826172 83.98926758 -106.20214844 84.48681641 C-102.24085469 87.94004613 -98.17710271 91.26380307 -94.04296875 94.5078125 C-90.55915623 97.24821733 -87.11853326 100.03944061 -83.6796875 102.8359375 C-83.00083496 103.38733398 -82.32198242 103.93873047 -81.62255859 104.50683594 C-77.3222477 108.00440877 -73.04107117 111.52430611 -68.76928711 115.05664062 C-62.3846914 120.33524908 -55.96757929 125.55833659 -49.43164062 130.64868164 C-46.32537717 133.06860451 -43.24056681 135.51108096 -40.1796875 137.98828125 C-39.50180176 138.53597168 -38.82391602 139.08366211 -38.12548828 139.64794922 C-36.81932018 140.70514193 -35.5154755 141.76521392 -34.21435547 142.82861328 C-28.86384747 147.15303639 -25.41955378 149.42867413 -18.2421875 148.7109375 C-11.93536341 146.37173129 -6.98610305 142.345801 -1.9296875 138.0234375 C-0.42851695 136.76286418 1.07278501 135.50244734 2.57421875 134.2421875 C3.29367676 133.63375 4.01313477 133.0253125 4.75439453 132.3984375 C7.31399213 130.24246155 9.90805683 128.13072844 12.5078125 126.0234375 C15.84901714 123.29705483 19.15201147 120.53218879 22.43237305 117.73339844 C27.43627122 113.46416112 32.49845677 109.30609316 37.6953125 105.2734375 C43.19400116 101.00519248 48.51925816 96.572642 53.76025391 91.99169922 C57.252181 88.94982945 60.83921383 86.1476681 64.5703125 83.3984375 C67.67103241 80.91786157 68.67537434 79.90672813 70.2578125 76.1484375 C69.22274126 69.03232273 63.81096698 65.64142836 58.3203125 61.5234375 C57.27359375 60.76160156 56.226875 59.99976563 55.1484375 59.21484375 C51.53165329 56.57400044 48.05141368 53.77696514 44.5703125 50.9609375 C39.21817994 46.64336664 33.79926579 42.42874267 28.3203125 38.2734375 C22.63179982 33.95544806 17.03494866 29.54612488 11.5078125 25.0234375 C8.92584658 22.91758774 6.34246489 20.81348901 3.7578125 18.7109375 C3.15388672 18.21867676 2.54996094 17.72641602 1.92773438 17.21923828 C-9.54109731 7.79198004 -9.54109731 7.79198004 -23.83789062 5.31860352 C-31.46218776 6.56273892 -38.13494824 12.70543005 -43.9921875 17.3984375 Z " fill="#9DB5BD" transform="translate(533.2421875,315.2890625)"/>
<path d="M0 0 C5.28 0 10.56 0 16 0 C16.77859375 1.94648437 17.5571875 3.89296875 18.359375 5.8984375 C18.63602997 6.58993896 18.91268494 7.28144043 19.19772339 7.99389648 C20.66164064 11.65307772 22.12465573 15.31261668 23.58642578 18.97265625 C27.04321467 27.62494675 30.51054692 36.27282911 33.99633789 44.91348267 C35.8365114 49.47661234 37.6726527 54.04135954 39.50842285 58.60626221 C40.4202327 60.87063751 41.33389197 63.13426895 42.24938965 65.39715576 C43.54336896 68.59622856 44.83094034 71.79781205 46.1171875 75 C46.51028107 75.96725006 46.90337463 76.93450012 47.30838013 77.93106079 C47.66407074 78.82006073 48.01976135 79.70906067 48.38623047 80.625 C48.85583694 81.78902344 48.85583694 81.78902344 49.33493042 82.9765625 C50 85 50 85 50 88 C50.66 88 51.32 88 52 88 C52.17390259 86.71186401 52.17390259 86.71186401 52.35131836 85.39770508 C53.01840407 81.90360202 54.05486677 78.93548107 55.37890625 75.63671875 C55.6227002 75.02370911 55.86649414 74.41069946 56.11767578 73.77911377 C56.92724893 71.7463867 57.7448989 69.71700984 58.5625 67.6875 C59.74198818 64.7353325 60.9175995 61.78162352 62.09375 58.828125 C62.55969322 57.66077065 62.55969322 57.66077065 63.03504944 56.46983337 C65.48561335 50.32151 67.89084206 44.15630814 70.28125 37.984375 C70.63815414 37.06400955 70.99505829 36.1436441 71.36277771 35.19538879 C72.77773089 31.54611532 74.19254878 27.89680717 75.6008606 24.2449646 C76.58587937 21.69188795 77.57571215 19.14072251 78.56640625 16.58984375 C78.85451172 15.83898499 79.14261719 15.08812622 79.43945312 14.31451416 C81.35978892 9.38549489 83.5756578 4.70248791 86 0 C88.47923801 -0.02685095 90.9581884 -0.04676547 93.4375 -0.0625 C94.14455078 -0.07087891 94.85160156 -0.07925781 95.58007812 -0.08789062 C97.38693559 -0.09653588 99.19387603 -0.05220011 101 0 C102 1 102 1 102.12304783 2.76287174 C102.12212604 3.53625606 102.12120424 4.30964037 102.12025452 5.10646057 C102.12231651 6.43375183 102.12231651 6.43375183 102.12442017 7.78785706 C102.11902725 9.25520546 102.11902725 9.25520546 102.11352539 10.75219727 C102.11367142 11.7764682 102.11381744 12.80073914 102.1139679 13.85604858 C102.11326828 17.25952229 102.10547363 20.66294204 102.09765625 24.06640625 C102.09579224 26.41910268 102.09436826 28.7717995 102.09336853 31.12449646 C102.08954199 37.33056705 102.07971055 43.5366144 102.06866455 49.74267578 C102.05845334 56.06998378 102.05387154 62.39729552 102.04882812 68.72460938 C102.0380884 81.14974982 102.02101036 93.57487298 102 106 C98.04 106 94.08 106 90 106 C89.67 78.94 89.34 51.88 89 24 C86.133125 31.239375 83.26625 38.47875 80.3125 45.9375 C78.90859009 49.48177734 78.90859009 49.48177734 77.47631836 53.09765625 C73.59727135 62.89326615 69.72294334 72.69059067 65.87890625 82.5 C65.42107506 83.66723351 65.42107506 83.66723351 64.95399475 84.85804749 C63.54863369 88.44118013 62.14573 92.02523495 60.74731445 95.61108398 C60.25613691 96.86446556 59.76485187 98.11780501 59.2734375 99.37109375 C58.85497559 100.44286865 58.43651367 101.51464355 58.00537109 102.61889648 C57 105 57 105 56 106 C52.66672158 106.1424478 49.33546107 106.04222103 46 106 C40.03368122 93.76104916 35.14431188 81.08441652 30.125 68.4375 C29.25683695 66.25703142 28.38834931 64.07669205 27.51953125 61.89648438 C25.89398124 57.81647118 24.27054951 53.73562777 22.64892578 49.65405273 C19.11026055 40.7649909 15.55329031 31.88322576 12 23 C11.67 50.39 11.34 77.78 11 106 C7.37 106 3.74 106 0 106 C0 71.02 0 36.04 0 0 Z " fill="#678992" transform="translate(257,625)"/>
<path d="M0 0 C4.29 0 8.58 0 13 0 C15.15061651 5.50938371 17.30108033 11.01882699 19.45141602 16.52832031 C20.17956641 18.39389571 20.90775512 20.25945615 21.63598633 22.125 C26.43277695 34.41325864 31.22214391 46.70436638 36 59 C40.85644826 47.84238002 44.98228051 36.4140319 49.1875 25 C50.61587353 21.12402746 52.04729394 17.24919938 53.48046875 13.375 C53.96642769 12.05157593 53.96642769 12.05157593 54.46220398 10.70141602 C54.76624649 9.87955811 55.070289 9.0577002 55.38354492 8.2109375 C55.64826096 7.49212402 55.91297699 6.77331055 56.18571472 6.03271484 C57.0108615 3.97288623 58.00765317 1.98469365 59 0 C62.96 0 66.92 0 71 0 C68.36105368 9.53859144 64.76970265 18.6616192 61.1875 27.875 C60.5213336 29.59471803 59.85540306 31.31452744 59.18969727 33.03442383 C57.8151839 36.58406185 56.43837539 40.13280001 55.06054688 43.68115234 C53.38362304 48.00386081 51.7193168 52.33127187 50.06095886 56.66113281 C48.81962068 59.90071834 47.57339029 63.13840908 46.32632446 66.37579346 C45.74232301 67.89469852 45.16021249 69.41433222 44.58016968 70.93475342 C32.92834685 101.45315532 32.92834685 101.45315532 19 108 C16.02119115 108.99293628 13.98398802 109.13406411 10.875 109.125 C9.54082031 109.12886719 9.54082031 109.12886719 8.1796875 109.1328125 C6 109 6 109 5 108 C4.92755947 105.98035801 4.91622812 103.95832876 4.9375 101.9375 C4.94652344 100.83277344 4.95554687 99.72804688 4.96484375 98.58984375 C4.97644531 97.73519531 4.98804688 96.88054687 5 96 C6.175625 96.04125 7.35125 96.0825 8.5625 96.125 C13.40022669 96.08233927 17.84370586 95.87283763 21.6640625 92.5546875 C25.15082304 88.72440376 27.49569397 84.95536104 29 80 C28.63492369 73.54131711 26.23982496 68.02144333 23.80859375 62.08203125 C23.38506119 61.02956711 22.96152863 59.97710297 22.52516174 58.89274597 C21.16989608 55.52966668 19.80395446 52.17104657 18.4375 48.8125 C17.54550219 46.60510923 16.65421955 44.39742933 15.76367188 42.18945312 C12.37664348 33.79848263 8.98486258 25.40954252 5.56298828 17.03271484 C4.82439658 15.21327609 4.08594454 13.39378064 3.34765625 11.57421875 C2.83566933 10.33029106 2.83566933 10.33029106 2.31333923 9.06123352 C2.00634598 8.30199081 1.69935272 7.54274811 1.38305664 6.76049805 C1.11433243 6.10260788 0.84560822 5.44471771 0.56874084 4.76689148 C0 3 0 3 0 0 Z " fill="#678892" transform="translate(377,655)"/>
<path d="M0 0 C3.96 0 7.92 0 12 0 C12.01981934 1.4319873 12.03963867 2.86397461 12.06005859 4.33935547 C12.1365397 9.68831994 12.22518965 15.03702736 12.31738281 20.38574219 C12.35549778 22.69395852 12.39038007 25.00223072 12.421875 27.31054688 C12.46790723 30.64212922 12.52583679 33.97333272 12.5859375 37.3046875 C12.59748871 38.32488983 12.60903992 39.34509216 12.62094116 40.39620972 C12.83477868 52.91532767 12.83477868 52.91532767 18 64 C22.90815064 67.27210043 28.2655827 66.52933083 34 66 C39.13794301 64.70938792 42.04028619 62.39916885 44.9375 58 C47.42237824 53.68726217 48.11780168 49.90721915 48.20532227 44.95605469 C48.22526749 43.95531921 48.24521271 42.95458374 48.26576233 41.92352295 C48.28247482 40.85047913 48.29918732 39.7774353 48.31640625 38.671875 C48.33718735 37.56773254 48.35796844 36.46359009 48.37937927 35.32598877 C48.44473646 31.80072217 48.50369564 28.27538141 48.5625 24.75 C48.60569836 22.35936735 48.64931307 19.96874218 48.69335938 17.578125 C48.80040376 11.7188259 48.90171038 5.85945224 49 0 C52.96 0 56.92 0 61 0 C61 25.08 61 50.16 61 76 C57.04 76 53.08 76 49 76 C48.67 72.7 48.34 69.4 48 66 C46.6078125 67.85625 46.6078125 67.85625 45.1875 69.75 C40.21777459 75.3896884 34.50478863 77.46678012 27.12890625 78.33984375 C19.52850427 78.60338057 14.0677574 77.00584138 7.75 72.875 C2.03444706 66.8996492 -0.13151993 59.44700632 -0.11352539 51.31347656 C-0.11344986 50.17259583 -0.11337433 49.03171509 -0.11329651 47.85626221 C-0.10813522 46.63010193 -0.10297394 45.40394165 -0.09765625 44.140625 C-0.0962413 42.88111023 -0.09482635 41.62159546 -0.09336853 40.32391357 C-0.08872073 36.98334881 -0.07974281 33.64285279 -0.06866455 30.30230713 C-0.05841598 26.8903462 -0.05386354 23.47837815 -0.04882812 20.06640625 C-0.03779963 13.37758275 -0.02053524 6.68880079 0 0 Z " fill="#668791" transform="translate(630,655)"/>
<path d="M0 0 C5.01728705 -0.73897062 10.05802687 -1.39530135 15 0 C19.19385179 3.46305501 21.66020454 7.71946215 24.3125 12.375 C25.04121259 13.56558182 25.77490984 14.75312769 26.51367188 15.9375 C27.85112583 18.10230919 29.1660422 20.281324 30.45043945 22.47802734 C31.89794495 25.05281066 31.89794495 25.05281066 34 27 C35.30414124 25.15420778 36.60776544 23.30806605 37.90966797 21.46069336 C39.01596085 19.89733974 40.12832961 18.3382688 41.24658203 16.78344727 C43.62517572 13.46154626 45.87742403 10.22073953 47.86328125 6.64453125 C49.40421386 3.8851868 50.51373509 1.95987234 53 0 C57.77950857 -0.80802742 62.20524357 -0.59851329 67 0 C65.63852708 2.85797454 64.10245019 5.44516081 62.3125 8.0546875 C61.51815552 9.2152063 61.51815552 9.2152063 60.70776367 10.39916992 C59.86242065 11.62470581 59.86242065 11.62470581 59 12.875 C58.42419189 13.71329346 57.84838379 14.55158691 57.25512695 15.4152832 C52.25648452 22.67253566 47.16144886 29.8578597 42 37 C47.3389244 45.93165924 53.48591171 54.20994013 59.6953125 62.546875 C60.79725479 64.03096808 61.89883595 65.51532939 63 67 C63.50885742 67.68126953 64.01771484 68.36253906 64.54199219 69.06445312 C68 73.77084799 68 73.77084799 68 76 C62.88466091 77.20985198 57.95156836 78.06647642 53 76 C48.01578205 71.4639753 44.77651037 65.32598552 41.47216797 59.52392578 C39.16167515 55.56275252 36.5865863 51.7846203 34 48 C30.8117817 50.93467427 28.75673751 53.87238801 26.63671875 57.640625 C16.56029148 74.70488014 16.56029148 74.70488014 11.78759766 77.11914062 C7.32366116 78.06144925 3.35014674 77.35004554 -1 76 C2.99392544 69.36220842 7.32772761 63.10900224 12 56.9375 C12.5168335 56.25268555 13.03366699 55.56787109 13.56616211 54.86230469 C15.82680418 51.86915005 18.09174967 48.87943638 20.36328125 45.89453125 C21.32814453 44.58548828 21.32814453 44.58548828 22.3125 43.25 C22.86550781 42.51265625 23.41851563 41.7753125 23.98828125 41.015625 C25.20130605 39.08420386 25.20130605 39.08420386 24.70703125 37.09350586 C23.96223225 34.88817043 23.05921854 33.37125781 21.69921875 31.48828125 C21.22194336 30.82054687 20.74466797 30.1528125 20.25292969 29.46484375 C19.73633789 28.75457031 19.21974609 28.04429687 18.6875 27.3125 C17.60276943 25.79824524 16.51813706 24.28392013 15.43359375 22.76953125 C14.87140137 21.98916504 14.30920898 21.20879883 13.72998047 20.40478516 C10.88471838 16.44968615 8.0662618 12.47577391 5.25 8.5 C4.72494873 7.76434814 4.19989746 7.02869629 3.65893555 6.27075195 C0 1.11338934 0 1.11338934 0 0 Z " fill="#678892" transform="translate(706,655)"/>
<path d="M0 0 C1.10408203 0.01353516 1.10408203 0.01353516 2.23046875 0.02734375 C4.0287888 0.05069856 5.82693911 0.08656164 7.625 0.125 C7.625 3.755 7.625 7.385 7.625 11.125 C6.57699219 11.18558594 5.52898438 11.24617187 4.44921875 11.30859375 C3.07029952 11.39301738 1.69139395 11.47766447 0.3125 11.5625 C-0.72293945 11.62147461 -0.72293945 11.62147461 -1.77929688 11.68164062 C-4.84661535 11.87427415 -7.44468152 12.14822717 -10.375 13.125 C-12.74720238 17.34493824 -12.79682916 21.71787022 -13 26.4375 C-13.12375 28.974375 -13.2475 31.51125 -13.375 34.125 C-6.445 34.125 0.485 34.125 7.625 34.125 C7.625 37.755 7.625 41.385 7.625 45.125 C0.695 45.125 -6.235 45.125 -13.375 45.125 C-13.375 66.575 -13.375 88.025 -13.375 110.125 C-17.335 110.125 -21.295 110.125 -25.375 110.125 C-25.375 88.675 -25.375 67.225 -25.375 45.125 C-29.665 45.125 -33.955 45.125 -38.375 45.125 C-38.375 41.495 -38.375 37.865 -38.375 34.125 C-34.085 34.125 -29.795 34.125 -25.375 34.125 C-25.43300781 33.01382813 -25.49101563 31.90265625 -25.55078125 30.7578125 C-25.90912584 20.98357897 -25.74508181 13.17174091 -18.91796875 5.484375 C-13.30810817 0.33336845 -7.20814526 -0.16945007 0 0 Z " fill="#688992" transform="translate(609.375,620.875)"/>
<path d="M0 0 C3.96 0 7.92 0 12 0 C12 31.35 12 62.7 12 95 C28.17 95 44.34 95 61 95 C61 98.63 61 102.26 61 106 C40.87 106 20.74 106 0 106 C0 71.02 0 36.04 0 0 Z " fill="#658791" transform="translate(465,625)"/>
<path d="M0 0 C3.25 0.625 3.25 0.625 5.1875 1.75 C6.79513148 4.58699672 6.65696301 6.39642677 6.25 9.625 C4.4637563 11.88459828 2.84721445 13.6451003 0.75 15.5625 C0.19973145 16.08827637 -0.35053711 16.61405273 -0.91748047 17.15576172 C-4.43754257 20.49451538 -8.06247036 23.70822168 -11.7578125 26.8515625 C-15.09046851 29.81827981 -18.17001651 33.03792191 -21.3046875 36.2109375 C-24.0376954 38.90901878 -26.88902492 41.41112604 -29.8125 43.8984375 C-31.94326506 45.7972241 -33.89879986 47.81645818 -35.875 49.875 C-39.94457908 53.96837778 -43.28369725 56.20619387 -49.0625 57.1875 C-57.93643312 55.83384918 -64.63420254 48.28554071 -71.13916016 42.52026367 C-74.84895337 39.23295641 -78.62635922 36.18730858 -82.625 33.25 C-85.5145986 30.9758234 -87.32224754 29.48323644 -88.0625 25.8125 C-87.75 22.625 -87.75 22.625 -86.75 20.6875 C-84.43156256 19.45583011 -82.46659755 18.84070011 -79.82421875 18.95703125 C-75.92565265 20.21250169 -73.32791911 23.2450783 -70.4375 26.04296875 C-66.87990077 29.4609529 -63.07302142 32.51234527 -59.23046875 35.6015625 C-57.19330144 37.26337772 -55.25367198 38.97996409 -53.3125 40.75 C-51.01235536 42.86896075 -51.01235536 42.86896075 -48.79296875 42.4375 C-46.3941174 41.48346351 -45.24696058 40.39112723 -43.5 38.5 C-41.13268665 36.02281135 -38.74344482 33.70965808 -36.125 31.5 C-32.31055664 28.21987555 -28.78435167 24.69976735 -25.25 21.125 C-21.13918698 16.9671794 -17.00053821 12.94620492 -12.51171875 9.19140625 C-10.58115521 7.47487415 -8.91544398 5.60616627 -7.1875 3.6875 C-4.54450739 0.99612309 -3.9405432 0.6567572 0 0 Z " fill="#9DB5BC" transform="translate(553.75,373.375)"/>
<path d="M0 0 C4.29 0 8.58 0 13 0 C13 25.08 13 50.16 13 76 C8.71 76 4.42 76 0 76 C0 50.92 0 25.84 0 0 Z " fill="#6A8A93" transform="translate(542,655)"/>
<path d="M0 0 C3.27522945 2.15475621 3.90229594 3.6641423 5 7.4375 C5 11 5 11 3.5 13.875 C0.20063519 16.67946009 -1.67750688 17.14905149 -6 17 C-9.4375 15.0625 -9.4375 15.0625 -12 12 C-12.86290403 8.88121827 -12.5833693 7.34111508 -12 4 C-8.51708493 -0.22171524 -5.31642554 -0.77329826 0 0 Z " fill="#668791" transform="translate(552,625)"/>
<path d="M0 0 C0.33 0 0.66 0 1 0 C1.02685095 2.47923801 1.04676547 4.9581884 1.0625 7.4375 C1.07087891 8.14455078 1.07925781 8.85160156 1.08789062 9.58007812 C1.09653588 11.38693559 1.05220011 13.19387603 1 15 C0 16 0 16 -2.50390625 16.09765625 C-3.51324219 16.08605469 -4.52257812 16.07445312 -5.5625 16.0625 C-6.57441406 16.05347656 -7.58632813 16.04445313 -8.62890625 16.03515625 C-9.41136719 16.02355469 -10.19382812 16.01195312 -11 16 C-11 18.64 -11 21.28 -11 24 C-7.37 24 -3.74 24 0 24 C0 24.33 0 24.66 0 25 C-4.29 25 -8.58 25 -13 25 C-13 21.37 -13 17.74 -13 14 C-8.71 14 -4.42 14 0 14 C0 9.38 0 4.76 0 0 Z " fill="#456F7D" transform="translate(584,641)"/>
<path d="M0 0 C0.33 0 0.66 0 1 0 C1 3.96 1 7.92 1 12 C7.27 12 13.54 12 20 12 C20 12.66 20 13.32 20 14 C13.07 14 6.14 14 -1 14 C-1.09765625 3.94140625 -1.09765625 3.94140625 -1 1 C-0.67 0.67 -0.34 0.34 0 0 Z " fill="#FEFCFA" transform="translate(597,641)"/>
<path d="M0 0 C0.66 0 1.32 0 2 0 C2 4.29 2 8.58 2 13 C-0.97870377 13.99290126 -2.59182885 14.05524548 -5.66796875 13.87890625 C-7.00698242 13.80639648 -7.00698242 13.80639648 -8.37304688 13.73242188 C-9.30181641 13.67634766 -10.23058594 13.62027344 -11.1875 13.5625 C-12.12787109 13.51029297 -13.06824219 13.45808594 -14.03710938 13.40429688 C-16.35841501 13.27468082 -18.67928409 13.13971819 -21 13 C-21 12.67 -21 12.34 -21 12 C-14.07 12 -7.14 12 0 12 C0 8.04 0 4.08 0 0 Z " fill="#E0E3DF" transform="translate(617,654)"/>
<path d="M0 0 C0.66 0.33 1.32 0.66 2 1 C-1.87244457 6.08991767 -6.03046763 10.4185806 -12 13 C-12.66 12.67 -13.32 12.34 -14 12 C-9.38 8.04 -4.76 4.08 0 0 Z " fill="#93AEB7" transform="translate(568,476)"/>
<path d="M0 0 C1.32709834 3.01613258 0.92457017 4.23048003 -0.125 7.4375 C-1.76935076 10.98623838 -4.07938984 13.39513148 -7 16 C-7.66 15.67 -8.32 15.34 -9 15 C-8.60167969 14.50371094 -8.20335937 14.00742187 -7.79296875 13.49609375 C-4.40115025 9.14697367 -1.93684016 5.1649071 0 0 Z " fill="#8FACB5" transform="translate(663,449)"/>
<path d="M0 0 C2.68872443 2.35649699 3.9193851 4.63578765 5.25 7.9375 C5.78367187 9.21947266 5.78367187 9.21947266 6.328125 10.52734375 C7.04658772 13.17145366 6.91982605 14.45868571 6 17 C5.34 14.69 4.68 12.38 4 10 C3.34 10 2.68 10 2 10 C1.7834375 8.63875 1.7834375 8.63875 1.5625 7.25 C1.13590527 4.78523044 0.64925779 2.41152893 0 0 Z " fill="#537A86" transform="translate(288,667)"/>
<path d="M0 0 C0.33 1.32 0.66 2.64 1 4 C0.38125 4.2475 -0.2375 4.495 -0.875 4.75 C-3.35068687 6.20628639 -3.95125002 7.37812506 -5 10 C-5 6.60406522 -4.47834052 5.93380119 -2.5 3.3125 C-2.0359375 2.68988281 -1.571875 2.06726563 -1.09375 1.42578125 C-0.7328125 0.95527344 -0.371875 0.48476563 0 0 Z " fill="#527985" transform="translate(748,671)"/>
<path d="M0 0 C0.66 0.33 1.32 0.66 2 1 C-3.14285714 6.57142857 -3.14285714 6.57142857 -7 7 C-4.78071806 4.09197539 -3.07030857 2.04687238 0 0 Z " fill="#90ACB5" transform="translate(546,551)"/>
<path d="M0 0 C0.66 0.33 1.32 0.66 2 1 C-3.14285714 6.57142857 -3.14285714 6.57142857 -7 7 C-4.66666667 4.66666667 -2.33333333 2.33333333 0 0 Z " fill="#91ACB6" transform="translate(462,280)"/>
</svg>
